<?xml version="1.0" encoding="UTF-8"?>
<!DOCTYPE svg PUBLIC "-//W3C//DTD SVG 1.1//EN" "http://www.w3.org/Graphics/SVG/1.1/DTD/svg11.dtd">
<!-- Creator: CorelDRAW -->
<svg xmlns="http://www.w3.org/2000/svg" xml:space="preserve" width="45px" height="39px" version="1.1" style="shape-rendering:geometricPrecision; text-rendering:geometricPrecision; image-rendering:optimizeQuality; fill-rule:evenodd; clip-rule:evenodd"
viewBox="0 0 0.19 0.16"
 xmlns:xlink="http://www.w3.org/1999/xlink"
 xmlns:xodm="http://www.corel.com/coreldraw/odm/2003">
 <defs>
  <style type="text/css">
   <![CDATA[
    .fil0 {fill:#181125}
    .fil6 {fill:#181125}
    .fil2 {fill:#181425}
    .fil1 {fill:#1A1325}
    .fil4 {fill:#EAE5E1}
    .fil5 {fill:#EAE5E1}
    .fil3 {fill:#FB3C63}
   ]]>
  </style>
 </defs>
 <g id="Camada_x0020_1">
  <metadata id="CorelCorpID_0Corel-Layer"/>
  <g id="_2169724069808">
   <polygon class="fil0" points="0.06,0.15 0.07,0.15 0.07,0.14 0.07,0.14 0.07,0.14 0.06,0.14 "/>
   <path class="fil0" d="M0.11 0.15l0.01 0 0 -0.01c0,0 0,0 0,0 0,0 -0.01,0 -0.01,0l0 0.01z"/>
   <path class="fil1" d="M0.04 0.12l0 0 0 0.02c0,0 0.01,0 0.01,0l0 -0.02 0.01 0 0 -0.01c0,0 0,0 0,0 0,0 -0.01,0 -0.01,0l0 0.01 -0.01 0z"/>
   <path class="fil1" d="M0.14 0.12l0 0.01c0,0 0,0 0,0 0,0 0,0 0,0l0 0.01c0,0 0.01,0 0.01,0l0 -0.02 0.01 0c0,0 0,-0.01 0,-0.01 0,0 0,0 0,0 0,0 0,0 0,0 0,0 0,0 0,0 0,0 0,0 0,0 -0.01,0 -0.01,0 -0.01,0 0,0 0.01,0 0.01,0 0,0.01 -0.01,0.01 -0.01,0.01 0,-0.01 0,0 0,-0.01 0,0 0,0 0,0 0,0 0,0 0,0 0,0 0,0.01 0,0.01 0,0 0,0 0,-0.01 0,0.01 0,0.01 0,0.01 0,0 0,0 0,0 0,0 0,0 0,0 0,0 0,0 0,0l0 0 -0.01 0c0,0.01 0,0 0,0.01 0,0 0,-0.01 0,-0.01 0,0.01 0,0.01 0,0.01 0,0 0,0 0,0 0,0 0,0 0,-0.01l0 0z"/>
   <path class="fil2" d="M0.09 0.06l0.06 0 0 0.03 -0.03 0 0 0.01 0.04 0 0 -0.05 -0.07 0c0,0 0,-0.01 0,-0.01 0,0 -0.01,0 -0.02,0l0 0.1 0.02 0 0 -0.08z"/>
   <path class="fil2" d="M0.01 0.1l0 0.01 0.02 0 -0.01 0 0 -0.01 0.04 0c0,0 0,-0.06 0,-0.07 0,0 0,-0.01 0,-0.02l-0.01 0 0 0.08 -0.02 0 -0.01 0.01 -0.01 0z"/>
   <polygon class="fil2" points="0.17,0.02 0.17,0.14 0.19,0.14 0.19,0.01 0.17,0.01 "/>
   <path class="fil2" d="M0.06 0.01l0.11 0 0 0 0 -0.01 -0.07 0c0,0 0,0 0,0l0 0c0,0 0,0 0,0 -0.01,0 0,0 -0.01,0l-0.03 0 0 0.01z"/>
   <polygon class="fil2" points="0.12,0.16 0.16,0.16 0.16,0.15 0.12,0.15 "/>
   <polygon class="fil2" points="0.03,0.15 0.03,0.15 0.02,0.16 0.06,0.16 0.06,0.15 0.03,0.15 "/>
   <polygon class="fil2" points="0,0.14 0.01,0.14 0.01,0.11 0,0.11 "/>
   <polygon class="fil2" points="0.1,0.14 0.11,0.14 0.11,0.11 0.1,0.11 "/>
   <polygon class="fil2" points="0.12,0.11 0.12,0.1 0.11,0.1 0.11,0.11 "/>
   <polygon class="fil2" points="0.16,0.15 0.17,0.15 0.17,0.14 0.16,0.14 "/>
   <path class="fil3" d="M0.12 0.15l0.04 0 0 0.01 -0.04 0 0 -0.01zm0.04 -0.01l0.01 0 0 0.01 -0.01 0 0 -0.01zm-0.05 0c0,0 0.01,0 0.01,0 0,0 0,0 0,0l0 0.01 -0.01 0 0 -0.01zm-0.05 0l0.01 0 0 0 0 0 0 0.01 -0.01 0 0 -0.01zm0.04 -0.03l0.01 0 0 0.03 -0.01 0 0 -0.03zm-0.1 0l0.01 0 0 0.03 -0.01 0 0 -0.03zm0.12 0c0.01,0 0.02,0 0.02,0 0,0 0,0.01 0,0.01 0,0 -0.01,0.01 -0.02,0 0,0 0,-0.01 0,-0.01zm0.02 0.01l0 0c0,0.01 0,0.01 0,0.01 0,0 0,0 0,0 0,0 0,0 0,-0.01 0,0 0,0.01 0,0.01 0,-0.01 0,0 0,-0.01l0.01 0 0 0c0,0 0,0 0,0 0,0 0,0 0,0 0,0 0,0 0,0 0,0 0,0 0,-0.01 0,0.01 0,0.01 0,0.01 0,0 0,-0.01 0,-0.01 0,0 0,0 0,0 0,0 0,0 0,0 0,0.01 0,0 0,0.01 0,0 0.01,0 0.01,-0.01 0,0 -0.01,0 -0.01,0 0,0 0,0 0.01,0 0,0 0,0 0,0 0,0 0,0 0,0 0,0 0,0 0,0 0,0 0,0 0,0 0,0 0,0.01 0,0.01l-0.01 0 0 0.02c0,0 -0.01,0 -0.01,0l0 -0.01c0,0 0,0 0,0 0,0 0,0 0,0l0 -0.01zm-0.03 -0.02l0.01 0 0 0.01 -0.01 0 0 -0.01zm-0.05 -0.09l-0.01 0 0.01 0c0,0.01 0,0.02 0,0.02 0,0.01 0,0.07 0,0.07l-0.04 0 0 0.01c0.01,0 0.02,0 0.02,0 0,0 0,0 0,0.01 0,0 0,0 0,0 0,0 0,0 0,0l0.01 0 0 -0.01c0,0 0.01,0 0.01,0 0,0 0,0 0,0l0 0.01 -0.01 0 0 0.02c0,0 -0.01,0 -0.01,0l0 -0.02 -0.01 0c0,0 0,0 0,0 -0.01,0 -0.01,-0.01 0,-0.01l-0.02 0 0 -0.01 0 0.01 -0.01 0 0 0.03 0.01 0 0 0.01 0.01 0c0,0 0,0 0,0 0,-0.01 0,0 0,-0.01 0,0 0,0 0,0.01 0,0 0,0 0,0l-0.01 0 0 -0.01 0.01 0 0 0c0,0 0,0 0,0 0,0 0,0 0,0 0.01,0.01 0,0.01 0.01,0.01l-0.01 0 0.01 0 0 0 0.03 0 0 0.01 -0.04 0 0.01 -0.01 -0.01 0.01 0.04 0 0 -0.01 0.01 0 0 -0.01 0.02 0 0 -0.08 0 0.08 -0.02 0 0 -0.1c0.01,0 0.02,0 0.02,0 0,0 0,0.01 0,0.01l0.07 0 0 0.05 -0.04 0 0 -0.01 0.03 0 0 -0.03 0 0.03 -0.03 0 0 0.01 -0.01 0 0 0.01 -0.01 0 0 0.03 0.01 0 0 0.01 0.01 0 0 0.01 0.04 0 0 -0.01 0.01 0 0 -0.01 0.02 0 0 -0.13 0 0.13 -0.02 0 0 -0.12 0 -0.01 0 0 -0.11 0z"/>
   <path class="fil4" d="M0.04 0.12l0 0c0,0 0,0 0,0 0,0 0,0 0,0 0,-0.01 0,-0.01 0,-0.01 0,0 -0.01,0 -0.02,0l0.01 0c-0.01,0 -0.01,0.01 0,0.01 0,0 0,0 0,0l0.01 0z"/>
   <polygon class="fil0" points="0.01,0.15 0.03,0.15 0.03,0.14 0.03,0.14 0.03,0.14 0.01,0.14 "/>
   <polygon class="fil5" points="0.12,0.12 0.14,0.12 0.14,0.12 0.14,0.12 0.14,0.11 0.12,0.11 "/>
   <polygon class="fil6" points="0.14,0.14 0.15,0.14 0.15,0.13 0.15,0.13 0.15,0.12 0.14,0.12 "/>
   <polygon class="fil6" points="0.15,0.12 0.16,0.12 0.16,0.12 0.16,0.11 0.16,0.11 0.15,0.11 "/>
   <polygon class="fil5" points="0.14,0.03 0.16,0.03 0.16,0.03 0.16,0.02 0.16,0.02 0.14,0.02 "/>
  </g>
 </g>
</svg>
